<svg width="232" height="75" viewBox="0 0 232 75" fill="none" xmlns="http://www.w3.org/2000/svg">
<path d="M127.048 29.1705C125.447 26.8647 122.906 25.5 119.894 25.5C114.53 25.5 110.812 29.735 110.812 35.8528C110.812 41.9703 114.53 46.2061 119.894 46.2061C123.095 46.2061 125.824 44.6998 127.283 42.159L127.707 45.7354H132.13V17.5H127.048V29.1705ZM103.236 29.9703C103.236 38.5356 101.965 41.2646 98.3412 41.2646C95.9413 41.2646 94.2945 40.0882 94.2945 37.5471V31.4296C94.2945 27.6646 92.1767 25.5 88.5061 25.5C85.1647 25.5 82.9998 27.3351 82.0591 31.1938L80.2703 38.6764C79.8 40.606 78.8119 41.7354 76.8356 41.7354C74.906 41.7354 73.7766 40.6531 73.7766 38.6764V25.9703H69.3529L67.3292 36.1824C66.4823 40.4644 65.3529 41.7354 63.0938 41.7354C61.1175 41.7354 60.0819 40.7468 60.0819 38.6764V25.9703H55V38.6764C55 43.1938 57.7765 46.2061 62.6235 46.2061C66.1057 46.2061 68.5531 44.6531 69.635 41.7824C70.6706 44.6531 73.0235 46.2061 76.8356 46.2061C81.0235 46.2061 84.0354 44.2294 85.2589 39.1471L87.1414 31.1938C87.3764 30.2528 87.7059 29.9703 88.2704 29.9703C88.8823 29.9703 89.2118 30.3469 89.2118 31.1938V37.5471C89.2118 42.7235 92.2704 45.7354 97.1648 45.7354C98.812 45.7354 100.083 45.4059 101.071 44.7468C99.3294 48.1824 96.5529 51.0059 92.4591 53.5L95.3764 57.5C104.695 51.5233 108.318 44.0411 108.318 29.9703V25.9703H103.236V29.9703ZM145.118 25.5C139.048 25.5 134.86 29.8295 134.86 35.8999C134.86 42.0174 139.189 46.2061 145.4 46.2061C148.601 46.2061 151.565 45.0763 153.542 43.1472L151.142 39.8058C149.448 41.1234 147.377 41.8766 145.4 41.8766C142.483 41.8766 140.412 40.2765 139.989 37.6879H154.624C154.766 36.9355 154.813 36.1353 154.813 35.4763C154.813 29.4059 150.954 25.5 145.118 25.5ZM169.166 25.5C166.154 25.5 163.801 26.8647 162.342 29.2646L161.965 25.9703H157.542V45.7354H162.624V35.8999C162.624 32.2294 164.46 29.9703 167.424 29.9703C170.013 29.9703 171.66 31.7116 171.66 34.5356V45.7354H176.742V33.9237C176.742 28.7468 173.825 25.5 169.166 25.5ZM145.118 29.735C147.847 29.735 149.636 31.3825 149.919 33.9237H140.13C140.695 31.2409 142.483 29.735 145.118 29.735ZM121.494 41.7354C118.248 41.7354 115.989 39.3354 115.989 35.8528C115.989 32.3706 118.248 29.9703 121.494 29.9703C124.741 29.9703 127 32.3706 127 35.8528C127 39.3354 124.741 41.7354 121.494 41.7354Z" fill="#FF2A00"/>
</svg>
